# xmcd
#
# Track frame offsets:
#  150
#  900
#  1650
#  2400
#  3150
#  3900
#  4650
#  5400
#  6150
#  6900
#  7650
#  8400
#  9150
#  234877
#
# Disc length: 4440 seconds
#
# Revision: 1
# Processed by: cddbd v1.5.1PL2 Copyright (c) Steve Scherf et al.
# Submitted via: Collectorz.com_Music_Collector 6.9
#
DISCID=5511560e
DTITLE=TLC - 3D
DYEAR=2002
DGENRE=R&B
TTITLE0=3D (Intro)
TTITLE1=Quickie
TTITLE2=Girl Talk
TTITLE3=Turntable
TTITLE4=In Your Arms Tonight
TTITLE5=Data Track
TTITLE6=Hands Up
TTITLE7=Damaged
TTITLE8=Dirty Dirty
TTITLE9=So So Dumb
TTITLE10=Good Love
TTITLE11=Hey Hey Hey Hey
TTITLE12=Give It To Me While It's Hot
TTITLE13=Data Track
EXTD=
EXTT0=
EXTT1=
EXTT2=
EXTT3=
EXTT4=
EXTT5=
EXTT6=
EXTT7=
EXTT8=
EXTT9=
EXTT10=
EXTT11=
EXTT12=
EXTT13=
PLAYORDER=
